<svg width="440" height="460" viewBox="0 0 440 460" fill="none" xmlns="http://www.w3.org/2000/svg">
<path d="M133.531 117.008C47.8513 117.403 -18.8107 82.953 -41.4316 65.6788V5.46587C87.9603 -0.785746 342.352 -6.87284 324.781 18.7917C302.818 50.8723 338.847 53.0933 344.03 85.4207C348.175 111.283 344.276 117.255 341.809 117.008C297.784 98.6478 249.104 103.271 230.267 107.877C221.054 116.185 197.051 131.173 174.743 124.658C152.434 118.143 137.973 116.843 133.531 117.008Z" fill="url(#paint0_linear_3001_527)"/>
<path d="M348.995 126.349C348.612 128.922 351.711 137.952 367.175 153.483C386.505 172.895 402.843 211.721 421.023 213.707" stroke="url(#paint1_linear_3001_527)" stroke-width="3.94839"/>
<path d="M-29 382.5C-7.95858 358.786 158.169 262.845 182.887 244.495C213.785 221.557 206.476 211.418 219.267 203.772C232.058 196.126 291.86 159.225 313.289 145.761C330.432 134.991 434.106 60.1476 466 32.5" stroke="url(#paint2_linear_3001_527)" stroke-width="9.87097"/>
<path d="M-151 116.977C-117 123.323 -42.4281 139.643 -16.1441 154.149C10.1399 168.656 44.0087 188.053 57.6577 195.938C70.4963 207.524 102.291 231.637 126.761 235.392C157.348 240.087 214.404 301.603 226.977 325.085C237.035 343.87 232.109 371.966 228.389 383.666" stroke="url(#paint3_linear_3001_527)" stroke-width="3.94839"/>
<path d="M111.569 301.805C77.8429 283.05 4.56737 249.242 -18.7281 264.049C-42.0236 278.855 -88.9765 267.092 -109.541 259.36" stroke="url(#paint4_linear_3001_527)" stroke-width="3.94839"/>
<path d="M133.57 295.5C133.57 293.45 135.07 291.93 137.12 291.93C139.17 291.93 140.67 293.45 140.67 295.5C140.67 297.55 139.17 299.08 137.12 299.08C135.07 299.08 133.57 297.55 133.57 295.5ZM134.61 295.5C134.61 297.39 135.68 298.72 137.12 298.72C138.57 298.72 139.64 297.39 139.64 295.5C139.64 293.61 138.57 292.29 137.12 292.29C135.68 292.29 134.61 293.61 134.61 295.5ZM141.562 294.59V294.2H146.452V294.59H144.502V299H143.502V294.59H141.562ZM150.73 299L149.03 296.72H148.57V299H147.6V294.2H148.57V296.33H149.06L150.73 294.2H151.47L149.82 296.28L151.84 299H150.73ZM152.854 301.5V294.2H153.474L153.684 294.97C154.034 294.45 154.594 294.13 155.334 294.13C156.694 294.13 157.664 295.23 157.664 296.62C157.664 298.03 156.684 299.07 155.334 299.07C154.684 299.07 154.174 298.83 153.824 298.41V301.5H152.854ZM153.794 296.6C153.794 297.88 154.324 298.71 155.184 298.71C156.054 298.71 156.674 297.88 156.674 296.61C156.674 295.34 156.044 294.49 155.184 294.49C154.314 294.49 153.794 295.32 153.794 296.6ZM158.996 299V294.2H159.966V296.08H160.836C162.226 296.08 162.956 296.7 162.956 297.54C162.956 298.39 162.236 299 160.836 299H158.996ZM164.626 294.2V299H163.626V294.2H164.626ZM162.006 297.54C162.006 296.9 161.516 296.47 160.836 296.47H159.966V298.58H160.836C161.516 298.58 162.006 298.18 162.006 297.54ZM165.78 294.59V294.2H170.67V294.59H168.72V299H167.72V294.59H165.78ZM171.263 296.6C171.263 295.16 172.293 294.13 173.723 294.13C175.173 294.13 176.203 295.19 176.203 296.61C176.203 298.04 175.173 299.07 173.733 299.07C172.293 299.07 171.263 298.04 171.263 296.6ZM172.253 296.6C172.253 297.88 172.873 298.74 173.733 298.74C174.583 298.74 175.203 297.88 175.203 296.6C175.203 295.34 174.583 294.47 173.733 294.47C172.873 294.47 172.253 295.32 172.253 296.6ZM179.622 294.13C180.882 294.13 181.982 294.9 182.002 296.3V296.71H178.142C178.172 297.93 178.832 298.74 179.702 298.74C180.372 298.74 180.932 298.23 181.092 297.54H182.012C181.852 298.48 180.802 299.07 179.662 299.07C178.152 299.07 177.152 298.04 177.152 296.61C177.152 295.16 178.172 294.13 179.622 294.13ZM179.632 294.47C178.892 294.47 178.252 295.19 178.152 296.3H181.092C181.072 295.24 180.332 294.47 179.632 294.47ZM133.85 309V304.2H134.85V308.61H136.95V304.2H137.95V308.61H140.05V304.2H141.05V309H133.85ZM142.366 306.6C142.366 305.16 143.396 304.13 144.826 304.13C146.276 304.13 147.306 305.19 147.306 306.61C147.306 308.04 146.276 309.07 144.836 309.07C143.396 309.07 142.366 308.04 142.366 306.6ZM143.356 306.6C143.356 307.88 143.976 308.74 144.836 308.74C145.686 308.74 146.306 307.88 146.306 306.6C146.306 305.34 145.686 304.47 144.836 304.47C143.976 304.47 143.356 305.32 143.356 306.6ZM149.245 306.6C149.245 307.88 149.915 308.74 150.785 308.74C151.425 308.74 151.975 308.34 152.135 307.45H153.015C152.835 308.5 151.865 309.07 150.735 309.07C149.275 309.07 148.245 308.04 148.245 306.6C148.245 305.16 149.275 304.13 150.705 304.13C151.845 304.13 152.825 304.75 153.005 305.75H152.135C151.975 304.97 151.435 304.47 150.775 304.47C149.915 304.47 149.245 305.33 149.245 306.6ZM155.027 306.6C155.027 307.88 155.697 308.74 156.567 308.74C157.207 308.74 157.757 308.34 157.917 307.45H158.797C158.617 308.5 157.647 309.07 156.517 309.07C155.057 309.07 154.027 308.04 154.027 306.6C154.027 305.16 155.057 304.13 156.487 304.13C157.627 304.13 158.607 304.75 158.787 305.75H157.917C157.757 304.97 157.217 304.47 156.557 304.47C155.697 304.47 155.027 305.33 155.027 306.6ZM162.288 304.13C163.548 304.13 164.648 304.9 164.668 306.3V306.71H160.808C160.838 307.93 161.498 308.74 162.368 308.74C163.038 308.74 163.598 308.23 163.758 307.54H164.678C164.518 308.48 163.468 309.07 162.328 309.07C160.818 309.07 159.818 308.04 159.818 306.61C159.818 305.16 160.838 304.13 162.288 304.13ZM162.298 304.47C161.558 304.47 160.918 305.19 160.818 306.3H163.758C163.738 305.24 162.998 304.47 162.298 304.47Z" fill="white"/>
<path d="M346.684 124.8C346.684 122.34 348.484 120.516 350.944 120.516C353.404 120.516 355.204 122.34 355.204 124.8C355.204 127.26 353.404 129.096 350.944 129.096C348.484 129.096 346.684 127.26 346.684 124.8ZM347.932 124.8C347.932 127.068 349.216 128.664 350.944 128.664C352.684 128.664 353.968 127.068 353.968 124.8C353.968 122.532 352.684 120.948 350.944 120.948C349.216 120.948 347.932 122.532 347.932 124.8ZM356.274 123.708V123.24H362.142V123.708H359.802V129H358.602V123.708H356.274ZM367.276 129L365.236 126.264H364.684V129H363.52V123.24H364.684V125.796H365.272L367.276 123.24H368.164L366.184 125.736L368.608 129H367.276ZM369.825 132V123.24H370.569L370.821 124.164C371.241 123.54 371.913 123.156 372.801 123.156C374.433 123.156 375.597 124.476 375.597 126.144C375.597 127.836 374.421 129.084 372.801 129.084C372.021 129.084 371.409 128.796 370.989 128.292V132H369.825ZM370.953 126.12C370.953 127.656 371.589 128.652 372.621 128.652C373.665 128.652 374.409 127.656 374.409 126.132C374.409 124.608 373.653 123.588 372.621 123.588C371.577 123.588 370.953 124.584 370.953 126.12ZM377.196 129V123.24H378.36V125.496H379.404C381.072 125.496 381.948 126.24 381.948 127.248C381.948 128.268 381.084 129 379.404 129H377.196ZM383.952 123.24V129H382.752V123.24H383.952ZM380.808 127.248C380.808 126.48 380.22 125.964 379.404 125.964H378.36V128.496H379.404C380.22 128.496 380.808 128.016 380.808 127.248ZM385.337 123.708V123.24H391.205V123.708H388.865V129H387.665V123.708H385.337ZM391.916 126.12C391.916 124.392 393.152 123.156 394.868 123.156C396.608 123.156 397.844 124.428 397.844 126.132C397.844 127.848 396.608 129.084 394.88 129.084C393.152 129.084 391.916 127.848 391.916 126.12ZM393.104 126.12C393.104 127.656 393.848 128.688 394.88 128.688C395.9 128.688 396.644 127.656 396.644 126.12C396.644 124.608 395.9 123.564 394.88 123.564C393.848 123.564 393.104 124.584 393.104 126.12ZM401.946 123.156C403.458 123.156 404.778 124.08 404.802 125.76V126.252H400.17C400.206 127.716 400.998 128.688 402.042 128.688C402.846 128.688 403.518 128.076 403.71 127.248H404.814C404.622 128.376 403.362 129.084 401.994 129.084C400.182 129.084 398.982 127.848 398.982 126.132C398.982 124.392 400.206 123.156 401.946 123.156ZM401.958 123.564C401.07 123.564 400.302 124.428 400.182 125.76H403.71C403.686 124.488 402.798 123.564 401.958 123.564ZM347.02 141V135.24H348.22V140.532H350.74V135.24H351.94V140.532H354.46V135.24H355.66V141H347.02ZM357.24 138.12C357.24 136.392 358.476 135.156 360.192 135.156C361.932 135.156 363.168 136.428 363.168 138.132C363.168 139.848 361.932 141.084 360.204 141.084C358.476 141.084 357.24 139.848 357.24 138.12ZM358.428 138.12C358.428 139.656 359.172 140.688 360.204 140.688C361.224 140.688 361.968 139.656 361.968 138.12C361.968 136.608 361.224 135.564 360.204 135.564C359.172 135.564 358.428 136.584 358.428 138.12ZM365.494 138.12C365.494 139.656 366.298 140.688 367.342 140.688C368.11 140.688 368.77 140.208 368.962 139.14H370.018C369.802 140.4 368.638 141.084 367.282 141.084C365.53 141.084 364.294 139.848 364.294 138.12C364.294 136.392 365.53 135.156 367.246 135.156C368.614 135.156 369.79 135.9 370.006 137.1H368.962C368.77 136.164 368.122 135.564 367.33 135.564C366.298 135.564 365.494 136.596 365.494 138.12ZM372.432 138.12C372.432 139.656 373.236 140.688 374.28 140.688C375.048 140.688 375.708 140.208 375.9 139.14H376.956C376.74 140.4 375.576 141.084 374.22 141.084C372.468 141.084 371.232 139.848 371.232 138.12C371.232 136.392 372.468 135.156 374.184 135.156C375.552 135.156 376.728 135.9 376.944 137.1H375.9C375.708 136.164 375.06 135.564 374.268 135.564C373.236 135.564 372.432 136.596 372.432 138.12ZM381.145 135.156C382.657 135.156 383.977 136.08 384.001 137.76V138.252H379.369C379.405 139.716 380.197 140.688 381.241 140.688C382.045 140.688 382.717 140.076 382.909 139.248H384.013C383.821 140.376 382.561 141.084 381.193 141.084C379.381 141.084 378.181 139.848 378.181 138.132C378.181 136.392 379.405 135.156 381.145 135.156ZM381.157 135.564C380.269 135.564 379.501 136.428 379.381 137.76H382.909C382.885 136.488 381.997 135.564 381.157 135.564Z" fill="white"/>
<path d="M191.559 263.555L194.209 269.225L196.789 263.605V263.555H197.789V270.555H196.789V264.575L194.229 270.255H193.619L190.919 264.585V270.555H190.519V263.555H191.559ZM204.978 268.465H205.978C205.698 269.955 204.508 270.635 202.958 270.635C200.548 270.635 199.388 269.015 199.388 267.035C199.388 265.005 200.598 263.485 202.868 263.485C204.378 263.485 205.668 264.145 205.888 265.685H204.888C204.748 264.555 203.978 263.845 202.828 263.845C201.118 263.845 200.428 265.455 200.428 267.045C200.428 268.735 201.228 270.275 202.888 270.275C203.958 270.275 204.788 269.665 204.978 268.465ZM206.529 272.275V270.165H207.219C207.679 270.125 208.079 269.235 208.229 267.715L208.609 263.555H213.009V270.165H214.059V272.275H213.329L213.039 270.555H207.539L207.259 272.275H206.529ZM208.979 267.585C208.859 268.935 208.629 269.735 208.299 270.165H212.009V263.945H209.309L208.979 267.585Z" fill="white"/>
<path d="M256.21 360.91H257.21C256.93 362.4 255.74 363.08 254.19 363.08C251.78 363.08 250.62 361.46 250.62 359.48C250.62 357.45 251.83 355.93 254.1 355.93C255.61 355.93 256.9 356.59 257.12 358.13H256.12C255.98 357 255.21 356.29 254.06 356.29C252.35 356.29 251.66 357.9 251.66 359.49C251.66 361.18 252.46 362.72 254.12 362.72C255.19 362.72 256.02 362.11 256.21 360.91ZM258.665 363V356H261.225C262.725 356 263.615 356.64 263.615 357.74C263.615 358.56 263.115 359.12 262.235 359.35C263.345 359.54 264.015 360.19 264.015 361.15C264.015 362.3 263.075 363 261.535 363H258.665ZM261.205 359.57H259.665V362.61H261.205C262.295 362.61 262.985 362.07 262.985 361.1C262.985 360.13 262.285 359.57 261.205 359.57ZM260.905 356.39H259.665V359.18H260.915C261.965 359.18 262.635 358.71 262.635 357.79C262.635 356.88 261.965 356.39 260.905 356.39ZM266.002 356L268.112 358.88L270.262 356H270.752L268.382 359.24L271.142 363H269.932L267.622 359.85L265.292 363H264.802L267.362 359.49L264.802 356H266.002Z" fill="white"/>
<g opacity="0.1" clip-path="url(#clip0_3001_527)">
<path d="M358.695 200.561L358.666 210.997L349.73 212.599L349.76 202.162L358.695 200.561Z" fill="url(#paint5_linear_3001_527)"/>
<path d="M357.4 198.14L358.696 200.561L349.761 202.163L348.465 199.741L357.4 198.14Z" fill="#FFFCF8"/>
<path d="M349.761 202.163L349.732 212.599L348.436 210.178L348.465 199.741L349.761 202.163Z" fill="url(#paint6_linear_3001_527)"/>
<path d="M339.689 205.826L339.66 216.263L338.158 212.38L338.187 201.943L339.689 205.826Z" fill="url(#paint7_linear_3001_527)"/>
<path d="M346.37 204.965L346.339 215.402L339.66 216.263L339.689 205.826L346.37 204.965Z" fill="url(#paint8_linear_3001_527)"/>
<path d="M344.868 201.082L346.37 204.965L339.69 205.826L338.188 201.942L344.868 201.082Z" fill="#FFFCF8"/>
<path d="M358.763 210.838L358.734 221.275L343.598 223.224L343.627 212.787L358.763 210.838Z" fill="url(#paint9_linear_3001_527)"/>
<path d="M356.622 205.303L358.762 210.837L343.626 212.787L341.488 207.253L356.622 205.303Z" fill="#FFFCF8"/>
<path d="M343.628 212.787L343.599 223.224L341.461 217.69L341.49 207.253L343.628 212.787Z" fill="url(#paint10_linear_3001_527)"/>
<path d="M351.889 220.84L351.859 231.277L346.361 231.986L346.391 221.549L351.889 220.84Z" fill="url(#paint11_linear_3001_527)"/>
<path d="M349.258 214.036L351.89 220.84L346.392 221.549L343.76 214.743L349.258 214.036Z" fill="#FFFCF8"/>
<path d="M346.392 221.549L346.363 231.986L343.73 225.18L343.76 214.744L346.392 221.549Z" fill="url(#paint12_linear_3001_527)"/>
<path d="M308.666 205.99L308.637 216.427L304.279 217.139L304.309 206.702L308.666 205.99Z" fill="url(#paint13_linear_3001_527)"/>
<path d="M304.309 206.702L304.279 217.138L303.039 214.604L303.068 204.167L304.309 206.702Z" fill="url(#paint14_linear_3001_527)"/>
<path d="M307.424 203.454L308.666 205.99L304.309 206.702L303.068 204.167L307.424 203.454Z" fill="#FFFCF8"/>
<path d="M318.812 205.473L318.783 215.91L312.258 216.975L312.288 206.538L318.812 205.473Z" fill="url(#paint15_linear_3001_527)"/>
<path d="M312.288 206.538L312.258 216.974L310.402 213.18L310.432 202.744L312.288 206.538Z" fill="url(#paint16_linear_3001_527)"/>
<path d="M316.956 201.678L318.812 205.473L312.288 206.538L310.432 202.744L316.956 201.678Z" fill="#FFFCF8"/>
<path d="M332.583 206.166L332.554 216.603L325.883 217.693L325.912 207.256L332.583 206.166Z" fill="url(#paint17_linear_3001_527)"/>
<path d="M325.913 207.256L325.884 217.693L321.781 209.304L321.81 198.867L325.913 207.256Z" fill="url(#paint18_linear_3001_527)"/>
<path d="M328.481 197.777L332.584 206.166L325.913 207.256L321.811 198.867L328.481 197.777Z" fill="#FFFCF8"/>
<path d="M320.59 206.796L322.389 210.478L316.061 211.512L314.262 207.83L320.59 206.796Z" fill="#FFFCF8"/>
<path d="M322.39 210.478L322.359 220.915L316.031 221.949L316.062 211.512L322.39 210.478Z" fill="url(#paint19_linear_3001_527)"/>
<path d="M316.061 211.512L316.031 221.949L314.232 218.267L314.262 207.83L316.061 211.512Z" fill="url(#paint20_linear_3001_527)"/>
<path d="M320.592 225.564L320.562 236.001L318.043 236.414L318.072 225.977L320.592 225.564Z" fill="url(#paint21_linear_3001_527)"/>
<path d="M318.071 225.977L318.042 236.414L316.754 233.78L316.783 223.343L318.071 225.977Z" fill="url(#paint22_linear_3001_527)"/>
<path d="M319.305 222.93L320.591 225.564L318.071 225.977L316.783 223.343L319.305 222.93Z" fill="#FFFCF8"/>
<path d="M336.88 217.724L336.851 228.16L332.803 228.823L332.832 218.386L336.88 217.724Z" fill="url(#paint23_linear_3001_527)"/>
<path d="M332.83 218.386L332.801 228.823L331.648 226.467L331.679 216.03L332.83 218.386Z" fill="url(#paint24_linear_3001_527)"/>
<path d="M335.729 215.368L336.879 217.724L332.831 218.386L331.68 216.03L335.729 215.368Z" fill="#FFFCF8"/>
<path d="M340.063 224.233L340.033 234.67L333.363 235.76L333.392 225.323L340.063 224.233Z" fill="url(#paint25_linear_3001_527)"/>
<path d="M333.392 225.323L333.363 235.76L331.465 231.88L331.494 221.443L333.392 225.323Z" fill="url(#paint26_linear_3001_527)"/>
<path d="M338.165 220.353L340.063 224.233L333.392 225.323L331.494 221.443L338.165 220.353Z" fill="#FFFCF8"/>
<path d="M328.464 224.482L328.434 234.919L323.203 235.773L323.232 225.336L328.464 224.482Z" fill="url(#paint27_linear_3001_527)"/>
<path d="M323.233 225.336L323.203 235.773L322.258 233.844L322.288 223.407L323.233 225.336Z" fill="url(#paint28_linear_3001_527)"/>
<path d="M327.52 222.55L328.463 224.482L323.231 225.336L322.287 223.407L327.52 222.55Z" fill="#FFFCF8"/>
</g>
<defs>
<linearGradient id="paint0_linear_3001_527" x1="345.757" y1="-261.5" x2="345.757" y2="63" gradientUnits="userSpaceOnUse">
<stop stop-color="#4E5763" stop-opacity="0.09"/>
<stop offset="1" stop-color="#49525C"/>
</linearGradient>
<linearGradient id="paint1_linear_3001_527" x1="440.765" y1="203.589" x2="380.452" y2="31.0943" gradientUnits="userSpaceOnUse">
<stop stop-color="#464F59" stop-opacity="0.06"/>
<stop offset="1" stop-color="#96AABF"/>
</linearGradient>
<linearGradient id="paint2_linear_3001_527" x1="-72.5" y1="555" x2="492" y2="71" gradientUnits="userSpaceOnUse">
<stop stop-color="#454D58" stop-opacity="0.32"/>
<stop offset="1" stop-color="#95A6BE"/>
</linearGradient>
<linearGradient id="paint3_linear_3001_527" x1="345.756" y1="361.524" x2="-355.06" y2="-37.3656" gradientUnits="userSpaceOnUse">
<stop stop-color="#464F59" stop-opacity="0.06"/>
<stop offset="1" stop-color="#96AABF"/>
</linearGradient>
<linearGradient id="paint4_linear_3001_527" x1="139.107" y1="290.122" x2="115.231" y2="168.364" gradientUnits="userSpaceOnUse">
<stop stop-color="#464F59" stop-opacity="0.06"/>
<stop offset="1" stop-color="#96AABF"/>
</linearGradient>
<linearGradient id="paint5_linear_3001_527" x1="354.213" y1="200.561" x2="354.213" y2="212.599" gradientUnits="userSpaceOnUse">
<stop offset="0.31" stop-color="#FFEACC"/>
<stop offset="0.4" stop-color="#FBE9CB"/>
<stop offset="1" stop-color="#E8E5C8"/>
</linearGradient>
<linearGradient id="paint6_linear_3001_527" x1="346.166" y1="201.074" x2="352.061" y2="211.249" gradientUnits="userSpaceOnUse">
<stop offset="0.31" stop-color="#FFEACC"/>
<stop offset="0.4" stop-color="#FBE9CB"/>
<stop offset="1" stop-color="#E8E5C8"/>
</linearGradient>
<linearGradient id="paint7_linear_3001_527" x1="335.649" y1="203.413" x2="342.232" y2="214.774" gradientUnits="userSpaceOnUse">
<stop offset="0.31" stop-color="#FFEACC"/>
<stop offset="0.4" stop-color="#FBE9CB"/>
<stop offset="1" stop-color="#E8E5C8"/>
</linearGradient>
<linearGradient id="paint8_linear_3001_527" x1="343.015" y1="204.965" x2="343.015" y2="216.263" gradientUnits="userSpaceOnUse">
<stop offset="0.31" stop-color="#FFEACC"/>
<stop offset="0.4" stop-color="#FBE9CB"/>
<stop offset="1" stop-color="#E8E5C8"/>
</linearGradient>
<linearGradient id="paint9_linear_3001_527" x1="351.18" y1="210.838" x2="351.18" y2="223.224" gradientUnits="userSpaceOnUse">
<stop offset="0.31" stop-color="#FFEACC"/>
<stop offset="0.4" stop-color="#FBE9CB"/>
<stop offset="1" stop-color="#E8E5C8"/>
</linearGradient>
<linearGradient id="paint10_linear_3001_527" x1="338.834" y1="208.791" x2="346.293" y2="221.664" gradientUnits="userSpaceOnUse">
<stop offset="0.31" stop-color="#FFEACC"/>
<stop offset="0.4" stop-color="#FBE9CB"/>
<stop offset="1" stop-color="#E8E5C8"/>
</linearGradient>
<linearGradient id="paint11_linear_3001_527" x1="349.125" y1="220.84" x2="349.125" y2="231.986" gradientUnits="userSpaceOnUse">
<stop offset="0.31" stop-color="#FFEACC"/>
<stop offset="0.4" stop-color="#FBE9CB"/>
<stop offset="1" stop-color="#E8E5C8"/>
</linearGradient>
<linearGradient id="paint12_linear_3001_527" x1="341.016" y1="216.333" x2="349.148" y2="230.372" gradientUnits="userSpaceOnUse">
<stop offset="0.31" stop-color="#FFEACC"/>
<stop offset="0.4" stop-color="#FBE9CB"/>
<stop offset="1" stop-color="#E8E5C8"/>
</linearGradient>
<linearGradient id="paint13_linear_3001_527" x1="306.472" y1="205.99" x2="306.472" y2="217.139" gradientUnits="userSpaceOnUse">
<stop offset="0.31" stop-color="#FFEACC"/>
<stop offset="0.4" stop-color="#FBE9CB"/>
<stop offset="1" stop-color="#E8E5C8"/>
</linearGradient>
<linearGradient id="paint14_linear_3001_527" x1="300.723" y1="205.525" x2="306.654" y2="215.762" gradientUnits="userSpaceOnUse">
<stop offset="0.31" stop-color="#FFEACC"/>
<stop offset="0.4" stop-color="#FBE9CB"/>
<stop offset="1" stop-color="#E8E5C8"/>
</linearGradient>
<linearGradient id="paint15_linear_3001_527" x1="315.535" y1="205.473" x2="315.535" y2="216.975" gradientUnits="userSpaceOnUse">
<stop offset="0.31" stop-color="#FFEACC"/>
<stop offset="0.4" stop-color="#FBE9CB"/>
<stop offset="1" stop-color="#E8E5C8"/>
</linearGradient>
<linearGradient id="paint16_linear_3001_527" x1="308.045" y1="204.126" x2="314.678" y2="215.573" gradientUnits="userSpaceOnUse">
<stop offset="0.31" stop-color="#FFEACC"/>
<stop offset="0.4" stop-color="#FBE9CB"/>
<stop offset="1" stop-color="#E8E5C8"/>
</linearGradient>
<linearGradient id="paint17_linear_3001_527" x1="329.232" y1="206.166" x2="329.232" y2="217.693" gradientUnits="userSpaceOnUse">
<stop offset="0.31" stop-color="#FFEACC"/>
<stop offset="0.4" stop-color="#FBE9CB"/>
<stop offset="1" stop-color="#E8E5C8"/>
</linearGradient>
<linearGradient id="paint18_linear_3001_527" x1="319.277" y1="200.336" x2="328.464" y2="216.197" gradientUnits="userSpaceOnUse">
<stop offset="0.31" stop-color="#FFEACC"/>
<stop offset="0.4" stop-color="#FBE9CB"/>
<stop offset="1" stop-color="#E8E5C8"/>
</linearGradient>
<linearGradient id="paint19_linear_3001_527" x1="319.211" y1="210.478" x2="319.211" y2="221.949" gradientUnits="userSpaceOnUse">
<stop offset="0.31" stop-color="#FFEACC"/>
<stop offset="0.4" stop-color="#FBE9CB"/>
<stop offset="1" stop-color="#E8E5C8"/>
</linearGradient>
<linearGradient id="paint20_linear_3001_527" x1="311.879" y1="209.211" x2="318.448" y2="220.549" gradientUnits="userSpaceOnUse">
<stop offset="0.31" stop-color="#FFEACC"/>
<stop offset="0.4" stop-color="#FBE9CB"/>
<stop offset="1" stop-color="#E8E5C8"/>
</linearGradient>
<linearGradient id="paint21_linear_3001_527" x1="319.318" y1="225.564" x2="319.318" y2="236.414" gradientUnits="userSpaceOnUse">
<stop offset="0.31" stop-color="#FFEACC"/>
<stop offset="0.4" stop-color="#FBE9CB"/>
<stop offset="1" stop-color="#E8E5C8"/>
</linearGradient>
<linearGradient id="paint22_linear_3001_527" x1="314.435" y1="224.703" x2="320.421" y2="235.036" gradientUnits="userSpaceOnUse">
<stop offset="0.31" stop-color="#FFEACC"/>
<stop offset="0.4" stop-color="#FBE9CB"/>
<stop offset="1" stop-color="#E8E5C8"/>
</linearGradient>
<linearGradient id="paint23_linear_3001_527" x1="334.841" y1="217.724" x2="334.841" y2="228.823" gradientUnits="userSpaceOnUse">
<stop offset="0.31" stop-color="#FFEACC"/>
<stop offset="0.4" stop-color="#FBE9CB"/>
<stop offset="1" stop-color="#E8E5C8"/>
</linearGradient>
<linearGradient id="paint24_linear_3001_527" x1="329.339" y1="217.385" x2="335.17" y2="227.45" gradientUnits="userSpaceOnUse">
<stop offset="0.31" stop-color="#FFEACC"/>
<stop offset="0.4" stop-color="#FBE9CB"/>
<stop offset="1" stop-color="#E8E5C8"/>
</linearGradient>
<linearGradient id="paint25_linear_3001_527" x1="336.713" y1="224.233" x2="336.713" y2="235.76" gradientUnits="userSpaceOnUse">
<stop offset="0.31" stop-color="#FFEACC"/>
<stop offset="0.4" stop-color="#FBE9CB"/>
<stop offset="1" stop-color="#E8E5C8"/>
</linearGradient>
<linearGradient id="paint26_linear_3001_527" x1="329.105" y1="222.826" x2="335.784" y2="234.356" gradientUnits="userSpaceOnUse">
<stop offset="0.31" stop-color="#FFEACC"/>
<stop offset="0.4" stop-color="#FBE9CB"/>
<stop offset="1" stop-color="#E8E5C8"/>
</linearGradient>
<linearGradient id="paint27_linear_3001_527" x1="325.833" y1="224.482" x2="325.833" y2="235.773" gradientUnits="userSpaceOnUse">
<stop offset="0.31" stop-color="#FFEACC"/>
<stop offset="0.4" stop-color="#FBE9CB"/>
<stop offset="1" stop-color="#E8E5C8"/>
</linearGradient>
<linearGradient id="paint28_linear_3001_527" x1="319.963" y1="224.754" x2="325.557" y2="234.409" gradientUnits="userSpaceOnUse">
<stop offset="0.31" stop-color="#FFEACC"/>
<stop offset="0.4" stop-color="#FBE9CB"/>
<stop offset="1" stop-color="#E8E5C8"/>
</linearGradient>
<clipPath id="clip0_3001_527">
<rect width="67.6161" height="51.329" fill="white" transform="translate(297.635 192.484)"/>
</clipPath>
</defs>
</svg>
