<svg width="1014" height="636" viewBox="0 0 1014 636" fill="none" xmlns="http://www.w3.org/2000/svg">
<path d="M405.5 237.075C231.9 237.875 96.8333 168.075 51 133.075V11.0746C313.167 -1.59204 828.6 -13.9254 793 38.0746C748.5 103.075 821.5 107.575 832 173.075C840.4 225.475 832.5 237.575 827.5 237.075C738.3 199.875 639.667 209.241 601.5 218.575C582.833 235.408 534.2 265.775 489 252.575C443.8 239.375 414.5 236.741 405.5 237.075Z" fill="url(#paint0_linear_3002_527)"/>
<path d="M842.061 256C841.284 261.215 847.563 279.511 878.896 310.977C918.061 350.311 951.166 428.977 988 433" stroke="url(#paint1_linear_3002_527)" stroke-width="8"/>
<path d="M315 686C357.633 637.953 455.419 532.562 505.502 495.382C568.105 448.906 553.296 428.362 579.212 412.87C605.128 397.378 726.296 322.613 769.714 295.333C804.449 273.51 942.377 156.018 1007 100" stroke="url(#paint2_linear_3002_527)" stroke-width="20"/>
<path d="M-171 237.012C-102.111 249.871 48.9823 282.937 102.237 312.329C155.493 341.721 224.116 381.021 251.77 396.998C277.783 420.474 342.204 469.329 391.783 476.938C453.757 486.45 569.361 611.092 594.835 658.669C615.214 696.731 605.234 753.658 597.696 777.363" stroke="url(#paint3_linear_3002_527)" stroke-width="8"/>
<path d="M113.5 323C110.833 380.333 82.2 480.7 -11 423.5" stroke="url(#paint4_linear_3002_527)" stroke-width="8"/>
<path d="M361 611.5C292.667 573.5 144.2 505 97 535C49.8 565 -45.3333 541.167 -87 525.5" stroke="url(#paint5_linear_3002_527)" stroke-width="8"/>
<path d="M404.684 594.8C404.684 592.34 406.484 590.516 408.944 590.516C411.404 590.516 413.204 592.34 413.204 594.8C413.204 597.26 411.404 599.096 408.944 599.096C406.484 599.096 404.684 597.26 404.684 594.8ZM405.932 594.8C405.932 597.068 407.216 598.664 408.944 598.664C410.684 598.664 411.968 597.068 411.968 594.8C411.968 592.532 410.684 590.948 408.944 590.948C407.216 590.948 405.932 592.532 405.932 594.8ZM414.274 593.708V593.24H420.142V593.708H417.802V599H416.602V593.708H414.274ZM425.276 599L423.236 596.264H422.684V599H421.52V593.24H422.684V595.796H423.272L425.276 593.24H426.164L424.184 595.736L426.608 599H425.276ZM427.825 602V593.24H428.569L428.821 594.164C429.241 593.54 429.913 593.156 430.801 593.156C432.433 593.156 433.597 594.476 433.597 596.144C433.597 597.836 432.421 599.084 430.801 599.084C430.021 599.084 429.409 598.796 428.989 598.292V602H427.825ZM428.953 596.12C428.953 597.656 429.589 598.652 430.621 598.652C431.665 598.652 432.409 597.656 432.409 596.132C432.409 594.608 431.653 593.588 430.621 593.588C429.577 593.588 428.953 594.584 428.953 596.12ZM435.196 599V593.24H436.36V595.496H437.404C439.072 595.496 439.948 596.24 439.948 597.248C439.948 598.268 439.084 599 437.404 599H435.196ZM441.952 593.24V599H440.752V593.24H441.952ZM438.808 597.248C438.808 596.48 438.22 595.964 437.404 595.964H436.36V598.496H437.404C438.22 598.496 438.808 598.016 438.808 597.248ZM443.337 593.708V593.24H449.205V593.708H446.865V599H445.665V593.708H443.337ZM449.916 596.12C449.916 594.392 451.152 593.156 452.868 593.156C454.608 593.156 455.844 594.428 455.844 596.132C455.844 597.848 454.608 599.084 452.88 599.084C451.152 599.084 449.916 597.848 449.916 596.12ZM451.104 596.12C451.104 597.656 451.848 598.688 452.88 598.688C453.9 598.688 454.644 597.656 454.644 596.12C454.644 594.608 453.9 593.564 452.88 593.564C451.848 593.564 451.104 594.584 451.104 596.12ZM459.946 593.156C461.458 593.156 462.778 594.08 462.802 595.76V596.252H458.17C458.206 597.716 458.998 598.688 460.042 598.688C460.846 598.688 461.518 598.076 461.71 597.248H462.814C462.622 598.376 461.362 599.084 459.994 599.084C458.182 599.084 456.982 597.848 456.982 596.132C456.982 594.392 458.206 593.156 459.946 593.156ZM459.958 593.564C459.07 593.564 458.302 594.428 458.182 595.76H461.71C461.686 594.488 460.798 593.564 459.958 593.564ZM405.02 611V605.24H406.22V610.532H408.74V605.24H409.94V610.532H412.46V605.24H413.66V611H405.02ZM415.24 608.12C415.24 606.392 416.476 605.156 418.192 605.156C419.932 605.156 421.168 606.428 421.168 608.132C421.168 609.848 419.932 611.084 418.204 611.084C416.476 611.084 415.24 609.848 415.24 608.12ZM416.428 608.12C416.428 609.656 417.172 610.688 418.204 610.688C419.224 610.688 419.968 609.656 419.968 608.12C419.968 606.608 419.224 605.564 418.204 605.564C417.172 605.564 416.428 606.584 416.428 608.12ZM423.494 608.12C423.494 609.656 424.298 610.688 425.342 610.688C426.11 610.688 426.77 610.208 426.962 609.14H428.018C427.802 610.4 426.638 611.084 425.282 611.084C423.53 611.084 422.294 609.848 422.294 608.12C422.294 606.392 423.53 605.156 425.246 605.156C426.614 605.156 427.79 605.9 428.006 607.1H426.962C426.77 606.164 426.122 605.564 425.33 605.564C424.298 605.564 423.494 606.596 423.494 608.12ZM430.432 608.12C430.432 609.656 431.236 610.688 432.28 610.688C433.048 610.688 433.708 610.208 433.9 609.14H434.956C434.74 610.4 433.576 611.084 432.22 611.084C430.468 611.084 429.232 609.848 429.232 608.12C429.232 606.392 430.468 605.156 432.184 605.156C433.552 605.156 434.728 605.9 434.944 607.1H433.9C433.708 606.164 433.06 605.564 432.268 605.564C431.236 605.564 430.432 606.596 430.432 608.12ZM439.145 605.156C440.657 605.156 441.977 606.08 442.001 607.76V608.252H437.369C437.405 609.716 438.197 610.688 439.241 610.688C440.045 610.688 440.717 610.076 440.909 609.248H442.013C441.821 610.376 440.561 611.084 439.193 611.084C437.381 611.084 436.181 609.848 436.181 608.132C436.181 606.392 437.405 605.156 439.145 605.156ZM439.157 605.564C438.269 605.564 437.501 606.428 437.381 607.76H440.909C440.885 606.488 439.997 605.564 439.157 605.564Z" fill="white"/>
<path d="M836.684 249.8C836.684 247.34 838.484 245.516 840.944 245.516C843.404 245.516 845.204 247.34 845.204 249.8C845.204 252.26 843.404 254.096 840.944 254.096C838.484 254.096 836.684 252.26 836.684 249.8ZM837.932 249.8C837.932 252.068 839.216 253.664 840.944 253.664C842.684 253.664 843.968 252.068 843.968 249.8C843.968 247.532 842.684 245.948 840.944 245.948C839.216 245.948 837.932 247.532 837.932 249.8ZM846.274 248.708V248.24H852.142V248.708H849.802V254H848.602V248.708H846.274ZM857.276 254L855.236 251.264H854.684V254H853.52V248.24H854.684V250.796H855.272L857.276 248.24H858.164L856.184 250.736L858.608 254H857.276ZM859.825 257V248.24H860.569L860.821 249.164C861.241 248.54 861.913 248.156 862.801 248.156C864.433 248.156 865.597 249.476 865.597 251.144C865.597 252.836 864.421 254.084 862.801 254.084C862.021 254.084 861.409 253.796 860.989 253.292V257H859.825ZM860.953 251.12C860.953 252.656 861.589 253.652 862.621 253.652C863.665 253.652 864.409 252.656 864.409 251.132C864.409 249.608 863.653 248.588 862.621 248.588C861.577 248.588 860.953 249.584 860.953 251.12ZM867.196 254V248.24H868.36V250.496H869.404C871.072 250.496 871.948 251.24 871.948 252.248C871.948 253.268 871.084 254 869.404 254H867.196ZM873.952 248.24V254H872.752V248.24H873.952ZM870.808 252.248C870.808 251.48 870.22 250.964 869.404 250.964H868.36V253.496H869.404C870.22 253.496 870.808 253.016 870.808 252.248ZM875.337 248.708V248.24H881.205V248.708H878.865V254H877.665V248.708H875.337ZM881.916 251.12C881.916 249.392 883.152 248.156 884.868 248.156C886.608 248.156 887.844 249.428 887.844 251.132C887.844 252.848 886.608 254.084 884.88 254.084C883.152 254.084 881.916 252.848 881.916 251.12ZM883.104 251.12C883.104 252.656 883.848 253.688 884.88 253.688C885.9 253.688 886.644 252.656 886.644 251.12C886.644 249.608 885.9 248.564 884.88 248.564C883.848 248.564 883.104 249.584 883.104 251.12ZM891.946 248.156C893.458 248.156 894.778 249.08 894.802 250.76V251.252H890.17C890.206 252.716 890.998 253.688 892.042 253.688C892.846 253.688 893.518 253.076 893.71 252.248H894.814C894.622 253.376 893.362 254.084 891.994 254.084C890.182 254.084 888.982 252.848 888.982 251.132C888.982 249.392 890.206 248.156 891.946 248.156ZM891.958 248.564C891.07 248.564 890.302 249.428 890.182 250.76H893.71C893.686 249.488 892.798 248.564 891.958 248.564ZM837.02 266V260.24H838.22V265.532H840.74V260.24H841.94V265.532H844.46V260.24H845.66V266H837.02ZM847.24 263.12C847.24 261.392 848.476 260.156 850.192 260.156C851.932 260.156 853.168 261.428 853.168 263.132C853.168 264.848 851.932 266.084 850.204 266.084C848.476 266.084 847.24 264.848 847.24 263.12ZM848.428 263.12C848.428 264.656 849.172 265.688 850.204 265.688C851.224 265.688 851.968 264.656 851.968 263.12C851.968 261.608 851.224 260.564 850.204 260.564C849.172 260.564 848.428 261.584 848.428 263.12ZM855.494 263.12C855.494 264.656 856.298 265.688 857.342 265.688C858.11 265.688 858.77 265.208 858.962 264.14H860.018C859.802 265.4 858.638 266.084 857.282 266.084C855.53 266.084 854.294 264.848 854.294 263.12C854.294 261.392 855.53 260.156 857.246 260.156C858.614 260.156 859.79 260.9 860.006 262.1H858.962C858.77 261.164 858.122 260.564 857.33 260.564C856.298 260.564 855.494 261.596 855.494 263.12ZM862.432 263.12C862.432 264.656 863.236 265.688 864.28 265.688C865.048 265.688 865.708 265.208 865.9 264.14H866.956C866.74 265.4 865.576 266.084 864.22 266.084C862.468 266.084 861.232 264.848 861.232 263.12C861.232 261.392 862.468 260.156 864.184 260.156C865.552 260.156 866.728 260.9 866.944 262.1H865.9C865.708 261.164 865.06 260.564 864.268 260.564C863.236 260.564 862.432 261.596 862.432 263.12ZM871.145 260.156C872.657 260.156 873.977 261.08 874.001 262.76V263.252H869.369C869.405 264.716 870.197 265.688 871.241 265.688C872.045 265.688 872.717 265.076 872.909 264.248H874.013C873.821 265.376 872.561 266.084 871.193 266.084C869.381 266.084 868.181 264.848 868.181 263.132C868.181 261.392 869.405 260.156 871.145 260.156ZM871.157 260.564C870.269 260.564 869.501 261.428 869.381 262.76H872.909C872.885 261.488 871.997 260.564 871.157 260.564Z" fill="white"/>
<path d="M521.412 533.6L524.592 540.404L527.688 533.66V533.6H528.888V542H527.688V534.824L524.616 541.64H523.884L520.644 534.836V542H520.164V533.6H521.412ZM537.515 539.492H538.715C538.379 541.28 536.951 542.096 535.091 542.096C532.199 542.096 530.807 540.152 530.807 537.776C530.807 535.34 532.259 533.516 534.983 533.516C536.795 533.516 538.343 534.308 538.607 536.156H537.407C537.239 534.8 536.315 533.948 534.935 533.948C532.883 533.948 532.055 535.88 532.055 537.788C532.055 539.816 533.015 541.664 535.007 541.664C536.291 541.664 537.287 540.932 537.515 539.492ZM539.376 544.064V541.532H540.204C540.756 541.484 541.236 540.416 541.416 538.592L541.872 533.6H547.152V541.532H548.412V544.064H547.536L547.188 542H540.588L540.252 544.064H539.376ZM542.316 538.436C542.172 540.056 541.896 541.016 541.5 541.532H545.952V534.068H542.712L542.316 538.436Z" fill="white"/>
<path d="M612.452 616.492H613.652C613.316 618.28 611.888 619.096 610.028 619.096C607.136 619.096 605.744 617.152 605.744 614.776C605.744 612.34 607.196 610.516 609.92 610.516C611.732 610.516 613.28 611.308 613.544 613.156H612.344C612.176 611.8 611.252 610.948 609.872 610.948C607.82 610.948 606.992 612.88 606.992 614.788C606.992 616.816 607.952 618.664 609.944 618.664C611.228 618.664 612.224 617.932 612.452 616.492ZM615.398 619V610.6H618.47C620.27 610.6 621.338 611.368 621.338 612.688C621.338 613.672 620.738 614.344 619.682 614.62C621.014 614.848 621.818 615.628 621.818 616.78C621.818 618.16 620.69 619 618.842 619H615.398ZM618.446 614.884H616.598V618.532H618.446C619.754 618.532 620.582 617.884 620.582 616.72C620.582 615.556 619.742 614.884 618.446 614.884ZM618.086 611.068H616.598V614.416H618.098C619.358 614.416 620.162 613.852 620.162 612.748C620.162 611.656 619.358 611.068 618.086 611.068ZM624.202 610.6L626.734 614.056L629.314 610.6H629.902L627.058 614.488L630.37 619H628.918L626.146 615.22L623.35 619H622.762L625.834 614.788L622.762 610.6H624.202Z" fill="white"/>
<path d="M58.452 274.492H59.652C59.316 276.28 57.888 277.096 56.028 277.096C53.136 277.096 51.744 275.152 51.744 272.776C51.744 270.34 53.196 268.516 55.92 268.516C57.732 268.516 59.28 269.308 59.544 271.156H58.344C58.176 269.8 57.252 268.948 55.872 268.948C53.82 268.948 52.992 270.88 52.992 272.788C52.992 274.816 53.952 276.664 55.944 276.664C57.228 276.664 58.224 275.932 58.452 274.492ZM61.3984 277V268.6H64.4704C66.2704 268.6 67.3384 269.368 67.3384 270.688C67.3384 271.672 66.7384 272.344 65.6824 272.62C67.0144 272.848 67.8184 273.628 67.8184 274.78C67.8184 276.16 66.6904 277 64.8424 277H61.3984ZM64.4464 272.884H62.5984V276.532H64.4464C65.7544 276.532 66.5824 275.884 66.5824 274.72C66.5824 273.556 65.7424 272.884 64.4464 272.884ZM64.0864 269.068H62.5984V272.416H64.0984C65.3584 272.416 66.1624 271.852 66.1624 270.748C66.1624 269.656 65.3584 269.068 64.0864 269.068ZM70.2023 268.6L72.7343 272.056L75.3143 268.6H75.9023L73.0583 272.488L76.3703 277H74.9183L72.1463 273.22L69.3503 277H68.7623L71.8343 272.788L68.7623 268.6H70.2023Z" fill="white"/>
<g opacity="0.1" clip-path="url(#clip0_3002_527)">
<path d="M861.716 406.365L861.657 427.511L843.553 430.756L843.612 409.61L861.716 406.365Z" fill="url(#paint6_linear_3002_527)"/>
<path d="M859.09 401.459L861.717 406.365L843.613 409.61L840.986 404.704L859.09 401.459Z" fill="#FFFCF8"/>
<path d="M843.613 409.61L843.554 430.757L840.928 425.851L840.987 404.704L843.613 409.61Z" fill="url(#paint7_linear_3002_527)"/>
<path d="M823.208 417.032L823.149 438.179L820.105 430.311L820.165 409.165L823.208 417.032Z" fill="url(#paint8_linear_3002_527)"/>
<path d="M836.743 415.288L836.681 436.435L823.148 438.179L823.208 417.032L836.743 415.288Z" fill="url(#paint9_linear_3002_527)"/>
<path d="M833.699 407.42L836.742 415.288L823.207 417.032L820.164 409.164L833.699 407.42Z" fill="#FFFCF8"/>
<path d="M861.854 427.187L861.794 448.333L831.127 452.284L831.186 431.137L861.854 427.187Z" fill="url(#paint10_linear_3002_527)"/>
<path d="M857.516 415.974L861.853 427.187L831.186 431.137L826.854 419.924L857.516 415.974Z" fill="#FFFCF8"/>
<path d="M831.186 431.137L831.127 452.284L826.795 441.07L826.854 419.924L831.186 431.137Z" fill="url(#paint11_linear_3002_527)"/>
<path d="M847.926 447.453L847.867 468.6L836.727 470.036L836.786 448.89L847.926 447.453Z" fill="url(#paint12_linear_3002_527)"/>
<path d="M842.593 433.667L847.926 447.453L836.786 448.89L831.453 435.101L842.593 433.667Z" fill="#FFFCF8"/>
<path d="M836.787 448.89L836.728 470.036L831.395 456.247L831.454 435.101L836.787 448.89Z" fill="url(#paint13_linear_3002_527)"/>
<path d="M760.351 417.364L760.292 438.511L751.463 439.953L751.522 418.806L760.351 417.364Z" fill="url(#paint14_linear_3002_527)"/>
<path d="M751.522 418.806L751.462 439.953L748.949 434.817L749.008 413.671L751.522 418.806Z" fill="url(#paint15_linear_3002_527)"/>
<path d="M757.834 412.226L760.35 417.364L751.521 418.806L749.008 413.671L757.834 412.226Z" fill="#FFFCF8"/>
<path d="M780.906 416.317L780.847 437.463L767.627 439.62L767.689 418.474L780.906 416.317Z" fill="url(#paint16_linear_3002_527)"/>
<path d="M767.688 418.474L767.626 439.621L763.867 431.934L763.926 410.787L767.688 418.474Z" fill="url(#paint17_linear_3002_527)"/>
<path d="M777.146 408.627L780.905 416.317L767.688 418.474L763.926 410.787L777.146 408.627Z" fill="#FFFCF8"/>
<path d="M808.81 417.721L808.75 438.867L795.234 441.076L795.294 419.929L808.81 417.721Z" fill="url(#paint18_linear_3002_527)"/>
<path d="M795.293 419.929L795.234 441.076L786.922 424.079L786.981 402.933L795.293 419.929Z" fill="url(#paint19_linear_3002_527)"/>
<path d="M800.499 400.724L808.811 417.721L795.294 419.929L786.982 402.933L800.499 400.724Z" fill="#FFFCF8"/>
<path d="M784.509 418.998L788.155 426.458L775.334 428.553L771.688 421.093L784.509 418.998Z" fill="#FFFCF8"/>
<path d="M788.155 426.458L788.093 447.605L775.271 449.7L775.333 428.553L788.155 426.458Z" fill="url(#paint20_linear_3002_527)"/>
<path d="M775.332 428.553L775.27 449.7L771.627 442.24L771.686 421.093L775.332 428.553Z" fill="url(#paint21_linear_3002_527)"/>
<path d="M784.511 457.025L784.452 478.171L779.348 479.008L779.407 457.862L784.511 457.025Z" fill="url(#paint22_linear_3002_527)"/>
<path d="M779.408 457.862L779.348 479.008L776.738 473.67L776.798 452.524L779.408 457.862Z" fill="url(#paint23_linear_3002_527)"/>
<path d="M781.907 451.687L784.511 457.025L779.407 457.862L776.797 452.524L781.907 451.687Z" fill="#FFFCF8"/>
<path d="M817.513 441.138L817.454 462.284L809.252 463.626L809.311 442.48L817.513 441.138Z" fill="url(#paint24_linear_3002_527)"/>
<path d="M809.311 442.48L809.252 463.626L806.916 458.853L806.978 437.706L809.311 442.48Z" fill="url(#paint25_linear_3002_527)"/>
<path d="M815.183 436.364L817.513 441.138L809.311 442.48L806.979 437.706L815.183 436.364Z" fill="#FFFCF8"/>
<path d="M823.966 454.328L823.904 475.474L810.391 477.683L810.45 456.536L823.966 454.328Z" fill="url(#paint26_linear_3002_527)"/>
<path d="M810.449 456.536L810.39 477.682L806.545 469.82L806.604 448.674L810.449 456.536Z" fill="url(#paint27_linear_3002_527)"/>
<path d="M820.12 446.465L823.965 454.327L810.449 456.536L806.604 448.674L820.12 446.465Z" fill="#FFFCF8"/>
<path d="M800.461 454.832L800.402 475.979L789.803 477.709L789.862 456.563L800.461 454.832Z" fill="url(#paint28_linear_3002_527)"/>
<path d="M789.862 456.563L789.803 477.709L787.887 473.8L787.949 452.653L789.862 456.563Z" fill="url(#paint29_linear_3002_527)"/>
<path d="M798.551 450.917L800.462 454.832L789.862 456.563L787.949 452.653L798.551 450.917Z" fill="#FFFCF8"/>
</g>
<defs>
<linearGradient id="paint0_linear_3002_527" x1="835.5" y1="49.5" x2="835.5" y2="306" gradientUnits="userSpaceOnUse">
<stop stop-color="#4E5763" stop-opacity="0.09"/>
<stop offset="1" stop-color="#49525C"/>
</linearGradient>
<linearGradient id="paint1_linear_3002_527" x1="1028" y1="412.5" x2="905.797" y2="63.001" gradientUnits="userSpaceOnUse">
<stop stop-color="#464F59" stop-opacity="0.06"/>
<stop offset="1" stop-color="#96AABF"/>
</linearGradient>
<linearGradient id="paint2_linear_3002_527" x1="722.5" y1="100" x2="381.5" y2="686" gradientUnits="userSpaceOnUse">
<stop stop-color="#454D58" stop-opacity="0.32"/>
<stop offset="1" stop-color="#95A6BE"/>
</linearGradient>
<linearGradient id="paint3_linear_3002_527" x1="835.5" y1="732.5" x2="-584.455" y2="-75.7083" gradientUnits="userSpaceOnUse">
<stop stop-color="#464F59" stop-opacity="0.06"/>
<stop offset="1" stop-color="#96AABF"/>
</linearGradient>
<linearGradient id="paint4_linear_3002_527" x1="129.006" y1="408.192" x2="-45.9616" y2="226.781" gradientUnits="userSpaceOnUse">
<stop stop-color="#464F59" stop-opacity="0.06"/>
<stop offset="1" stop-color="#96AABF"/>
</linearGradient>
<linearGradient id="paint5_linear_3002_527" x1="416.797" y1="587.828" x2="368.421" y2="341.128" gradientUnits="userSpaceOnUse">
<stop stop-color="#464F59" stop-opacity="0.06"/>
<stop offset="1" stop-color="#96AABF"/>
</linearGradient>
<linearGradient id="paint6_linear_3002_527" x1="852.634" y1="406.365" x2="852.634" y2="430.756" gradientUnits="userSpaceOnUse">
<stop offset="0.31" stop-color="#FFEACC"/>
<stop offset="0.4" stop-color="#FBE9CB"/>
<stop offset="1" stop-color="#E8E5C8"/>
</linearGradient>
<linearGradient id="paint7_linear_3002_527" x1="836.329" y1="407.404" x2="848.273" y2="428.021" gradientUnits="userSpaceOnUse">
<stop offset="0.31" stop-color="#FFEACC"/>
<stop offset="0.4" stop-color="#FBE9CB"/>
<stop offset="1" stop-color="#E8E5C8"/>
</linearGradient>
<linearGradient id="paint8_linear_3002_527" x1="815.022" y1="412.143" x2="828.359" y2="435.161" gradientUnits="userSpaceOnUse">
<stop offset="0.31" stop-color="#FFEACC"/>
<stop offset="0.4" stop-color="#FBE9CB"/>
<stop offset="1" stop-color="#E8E5C8"/>
</linearGradient>
<linearGradient id="paint9_linear_3002_527" x1="829.946" y1="415.288" x2="829.946" y2="438.179" gradientUnits="userSpaceOnUse">
<stop offset="0.31" stop-color="#FFEACC"/>
<stop offset="0.4" stop-color="#FBE9CB"/>
<stop offset="1" stop-color="#E8E5C8"/>
</linearGradient>
<linearGradient id="paint10_linear_3002_527" x1="846.489" y1="427.187" x2="846.489" y2="452.284" gradientUnits="userSpaceOnUse">
<stop offset="0.31" stop-color="#FFEACC"/>
<stop offset="0.4" stop-color="#FBE9CB"/>
<stop offset="1" stop-color="#E8E5C8"/>
</linearGradient>
<linearGradient id="paint11_linear_3002_527" x1="821.472" y1="423.04" x2="836.586" y2="449.123" gradientUnits="userSpaceOnUse">
<stop offset="0.31" stop-color="#FFEACC"/>
<stop offset="0.4" stop-color="#FBE9CB"/>
<stop offset="1" stop-color="#E8E5C8"/>
</linearGradient>
<linearGradient id="paint12_linear_3002_527" x1="842.326" y1="447.453" x2="842.326" y2="470.036" gradientUnits="userSpaceOnUse">
<stop offset="0.31" stop-color="#FFEACC"/>
<stop offset="0.4" stop-color="#FBE9CB"/>
<stop offset="1" stop-color="#E8E5C8"/>
</linearGradient>
<linearGradient id="paint13_linear_3002_527" x1="825.894" y1="438.322" x2="842.371" y2="466.766" gradientUnits="userSpaceOnUse">
<stop offset="0.31" stop-color="#FFEACC"/>
<stop offset="0.4" stop-color="#FBE9CB"/>
<stop offset="1" stop-color="#E8E5C8"/>
</linearGradient>
<linearGradient id="paint14_linear_3002_527" x1="755.905" y1="417.364" x2="755.905" y2="439.953" gradientUnits="userSpaceOnUse">
<stop offset="0.31" stop-color="#FFEACC"/>
<stop offset="0.4" stop-color="#FBE9CB"/>
<stop offset="1" stop-color="#E8E5C8"/>
</linearGradient>
<linearGradient id="paint15_linear_3002_527" x1="744.256" y1="416.422" x2="756.273" y2="437.163" gradientUnits="userSpaceOnUse">
<stop offset="0.31" stop-color="#FFEACC"/>
<stop offset="0.4" stop-color="#FBE9CB"/>
<stop offset="1" stop-color="#E8E5C8"/>
</linearGradient>
<linearGradient id="paint16_linear_3002_527" x1="774.268" y1="416.317" x2="774.268" y2="439.62" gradientUnits="userSpaceOnUse">
<stop offset="0.31" stop-color="#FFEACC"/>
<stop offset="0.4" stop-color="#FBE9CB"/>
<stop offset="1" stop-color="#E8E5C8"/>
</linearGradient>
<linearGradient id="paint17_linear_3002_527" x1="759.091" y1="413.587" x2="772.53" y2="436.781" gradientUnits="userSpaceOnUse">
<stop offset="0.31" stop-color="#FFEACC"/>
<stop offset="0.4" stop-color="#FBE9CB"/>
<stop offset="1" stop-color="#E8E5C8"/>
</linearGradient>
<linearGradient id="paint18_linear_3002_527" x1="802.021" y1="417.721" x2="802.021" y2="441.076" gradientUnits="userSpaceOnUse">
<stop offset="0.31" stop-color="#FFEACC"/>
<stop offset="0.4" stop-color="#FBE9CB"/>
<stop offset="1" stop-color="#E8E5C8"/>
</linearGradient>
<linearGradient id="paint19_linear_3002_527" x1="781.847" y1="405.908" x2="800.463" y2="438.046" gradientUnits="userSpaceOnUse">
<stop offset="0.31" stop-color="#FFEACC"/>
<stop offset="0.4" stop-color="#FBE9CB"/>
<stop offset="1" stop-color="#E8E5C8"/>
</linearGradient>
<linearGradient id="paint20_linear_3002_527" x1="781.713" y1="426.458" x2="781.713" y2="449.7" gradientUnits="userSpaceOnUse">
<stop offset="0.31" stop-color="#FFEACC"/>
<stop offset="0.4" stop-color="#FBE9CB"/>
<stop offset="1" stop-color="#E8E5C8"/>
</linearGradient>
<linearGradient id="paint21_linear_3002_527" x1="766.859" y1="423.89" x2="780.168" y2="446.863" gradientUnits="userSpaceOnUse">
<stop offset="0.31" stop-color="#FFEACC"/>
<stop offset="0.4" stop-color="#FBE9CB"/>
<stop offset="1" stop-color="#E8E5C8"/>
</linearGradient>
<linearGradient id="paint22_linear_3002_527" x1="781.931" y1="457.025" x2="781.931" y2="479.008" gradientUnits="userSpaceOnUse">
<stop offset="0.31" stop-color="#FFEACC"/>
<stop offset="0.4" stop-color="#FBE9CB"/>
<stop offset="1" stop-color="#E8E5C8"/>
</linearGradient>
<linearGradient id="paint23_linear_3002_527" x1="772.04" y1="455.28" x2="784.167" y2="476.216" gradientUnits="userSpaceOnUse">
<stop offset="0.31" stop-color="#FFEACC"/>
<stop offset="0.4" stop-color="#FBE9CB"/>
<stop offset="1" stop-color="#E8E5C8"/>
</linearGradient>
<linearGradient id="paint24_linear_3002_527" x1="813.382" y1="441.138" x2="813.382" y2="463.626" gradientUnits="userSpaceOnUse">
<stop offset="0.31" stop-color="#FFEACC"/>
<stop offset="0.4" stop-color="#FBE9CB"/>
<stop offset="1" stop-color="#E8E5C8"/>
</linearGradient>
<linearGradient id="paint25_linear_3002_527" x1="802.237" y1="440.452" x2="814.05" y2="460.846" gradientUnits="userSpaceOnUse">
<stop offset="0.31" stop-color="#FFEACC"/>
<stop offset="0.4" stop-color="#FBE9CB"/>
<stop offset="1" stop-color="#E8E5C8"/>
</linearGradient>
<linearGradient id="paint26_linear_3002_527" x1="817.177" y1="454.328" x2="817.177" y2="477.683" gradientUnits="userSpaceOnUse">
<stop offset="0.31" stop-color="#FFEACC"/>
<stop offset="0.4" stop-color="#FBE9CB"/>
<stop offset="1" stop-color="#E8E5C8"/>
</linearGradient>
<linearGradient id="paint27_linear_3002_527" x1="801.763" y1="451.476" x2="815.297" y2="474.837" gradientUnits="userSpaceOnUse">
<stop offset="0.31" stop-color="#FFEACC"/>
<stop offset="0.4" stop-color="#FBE9CB"/>
<stop offset="1" stop-color="#E8E5C8"/>
</linearGradient>
<linearGradient id="paint28_linear_3002_527" x1="795.131" y1="454.832" x2="795.131" y2="477.709" gradientUnits="userSpaceOnUse">
<stop offset="0.31" stop-color="#FFEACC"/>
<stop offset="0.4" stop-color="#FBE9CB"/>
<stop offset="1" stop-color="#E8E5C8"/>
</linearGradient>
<linearGradient id="paint29_linear_3002_527" x1="783.237" y1="455.383" x2="794.572" y2="474.946" gradientUnits="userSpaceOnUse">
<stop offset="0.31" stop-color="#FFEACC"/>
<stop offset="0.4" stop-color="#FBE9CB"/>
<stop offset="1" stop-color="#E8E5C8"/>
</linearGradient>
<clipPath id="clip0_3002_527">
<rect width="137" height="104" fill="white" transform="translate(738 390)"/>
</clipPath>
</defs>
</svg>
