<svg width="136" height="14" viewBox="0 0 136 14" fill="none" xmlns="http://www.w3.org/2000/svg">
<path d="M1.552 11.5316V0.331615H5.648C8.048 0.331615 9.472 1.35562 9.472 3.11562C9.472 4.42762 8.672 5.32362 7.264 5.69162C9.04 5.99562 10.112 7.03562 10.112 8.57162C10.112 10.4116 8.608 11.5316 6.144 11.5316H1.552ZM5.616 6.04362H3.152V10.9076H5.616C7.36 10.9076 8.464 10.0436 8.464 8.49162C8.464 6.93962 7.344 6.04362 5.616 6.04362ZM5.136 0.955616H3.152V5.41962H5.152C6.832 5.41962 7.904 4.66762 7.904 3.19562C7.904 1.73962 6.832 0.955616 5.136 0.955616ZM13.125 11.5316V3.85162H16.341C18.581 3.85162 19.381 4.76362 19.381 5.83562C19.381 6.66762 18.933 7.29162 17.765 7.56362C19.141 7.81962 19.813 8.50762 19.813 9.43562C19.813 10.6036 18.661 11.5316 16.421 11.5316H13.125ZM16.421 7.88362H14.677V10.8596H16.421C17.509 10.8596 18.309 10.2996 18.309 9.38762C18.309 8.49162 17.509 7.88362 16.421 7.88362ZM16.341 4.53962H14.677V7.25962H16.341C17.429 7.25962 18.021 6.69962 18.021 5.88362C18.021 5.05162 17.429 4.53962 16.341 4.53962ZM21.9695 7.69162C21.9695 5.38762 23.6175 3.73962 25.9055 3.73962C28.2255 3.73962 29.8735 5.43562 29.8735 7.70762C29.8735 9.99562 28.2255 11.6436 25.9215 11.6436C23.6175 11.6436 21.9695 9.99562 21.9695 7.69162ZM23.5535 7.69162C23.5535 9.73962 24.5455 11.1156 25.9215 11.1156C27.2815 11.1156 28.2735 9.73962 28.2735 7.69162C28.2735 5.67562 27.2815 4.28362 25.9215 4.28362C24.5455 4.28362 23.5535 5.64362 23.5535 7.69162ZM31.3375 13.9316V10.9076H32.5055C32.9215 10.4436 33.2735 9.25962 33.4335 7.70762L33.8175 3.85162H39.2735V10.9076H40.6815V13.9316H39.5615L39.1295 11.5316H32.8895L32.4575 13.9316H31.3375ZM34.5375 7.54762C34.3615 9.37162 34.1055 10.3796 33.7215 10.9076H37.6735V4.47562H34.8255L34.5375 7.54762ZM48.1538 11.5316V3.85162H51.3698C53.6098 3.85162 54.4098 4.76362 54.4098 5.83562C54.4098 6.66762 53.9618 7.29162 52.7938 7.56362C54.1698 7.81962 54.8418 8.50762 54.8418 9.43562C54.8418 10.6036 53.6898 11.5316 51.4498 11.5316H48.1538ZM51.4498 7.88362H49.7058V10.8596H51.4498C52.5378 10.8596 53.3378 10.2996 53.3378 9.38762C53.3378 8.49162 52.5378 7.88362 51.4498 7.88362ZM51.3698 4.53962H49.7058V7.25962H51.3698C52.4578 7.25962 53.0498 6.69962 53.0498 5.88362C53.0498 5.05162 52.4578 4.53962 51.3698 4.53962ZM61.9999 11.5316V10.2996C61.9999 9.67562 68.0959 6.36362 68.0959 3.09962C68.0959 1.89962 67.2159 0.859615 65.9519 0.859615C64.5439 0.859615 63.5999 2.25162 63.5999 3.56362H62.0639C62.0639 1.81962 63.4719 0.219616 65.9679 0.219616C68.4319 0.219616 69.7439 1.77162 69.7439 3.35562C69.7439 6.90762 63.1199 9.69162 63.1199 10.2996H69.8399V11.5316H61.9999ZM71.9383 5.93162C71.9383 2.65162 73.7943 0.219616 76.3063 0.219616C78.8183 0.219616 80.6583 2.65162 80.6583 5.93162C80.6583 9.21162 78.8183 11.6596 76.3063 11.6596C73.7943 11.6596 71.9383 9.21162 71.9383 5.93162ZM73.6023 5.93162C73.6023 8.95562 74.7543 11.0836 76.3063 11.0836C77.8583 11.0836 79.0103 8.95562 79.0103 5.93162C79.0103 2.90762 77.8583 0.795616 76.3063 0.795616C74.7543 0.795616 73.6023 2.90762 73.6023 5.93162ZM82.9205 11.5316V10.2996C82.9205 9.67562 89.0165 6.36362 89.0165 3.09962C89.0165 1.89962 88.1365 0.859615 86.8725 0.859615C85.4645 0.859615 84.5205 2.25162 84.5205 3.56362H82.9845C82.9845 1.81962 84.3925 0.219616 86.8885 0.219616C89.3525 0.219616 90.6645 1.77162 90.6645 3.35562C90.6645 6.90762 84.0405 9.69162 84.0405 10.2996H90.7605V11.5316H82.9205ZM97.2749 0.795616C95.0669 0.795616 94.5069 3.49962 94.5389 6.23562C94.9869 5.09962 96.0269 4.41162 97.4989 4.41162C99.3709 4.41162 101.179 5.73962 101.179 8.04362C101.179 10.2516 99.5629 11.6596 97.2109 11.6596C94.2029 11.6596 92.8589 9.32362 92.8589 6.15562C92.8589 2.09162 94.7789 0.219616 97.3069 0.219616C98.8749 0.219616 100.283 1.01962 100.891 2.37962H99.4189C99.0349 1.41962 98.2989 0.795616 97.2749 0.795616ZM97.0989 5.25962C95.6109 5.25962 94.6829 6.36362 94.5709 7.51562C94.7789 9.70762 95.5309 11.0676 97.0989 11.0676C98.5389 11.0676 99.5309 10.0436 99.5309 8.25162C99.5309 6.52362 98.5869 5.25962 97.0989 5.25962Z" fill="white"/>
<rect x="107" y="2.53162" width="12" height="1" fill="#FFEACC"/>
<rect x="107" y="6.53162" width="20" height="1" fill="#FFEACC"/>
<rect x="107" y="10.5316" width="28.8867" height="1" fill="#FFEACC"/>
</svg>
