<svg width="64" height="64" viewBox="0 0 64 64" fill="none" xmlns="http://www.w3.org/2000/svg">
<path opacity="0.5" d="M32.0003 5.3335C20.2183 5.3335 10.667 16.0071 10.667 28.0002C10.667 39.8993 17.4759 52.8333 28.0992 57.7987C30.5756 58.9562 33.425 58.9562 35.9015 57.7987C46.5248 52.8333 53.3337 39.8993 53.3337 28.0002C53.3337 16.0071 43.7824 5.3335 32.0003 5.3335Z" fill="white"/>
<path d="M31.9997 33.3333C35.6816 33.3333 38.6663 30.3486 38.6663 26.6667C38.6663 22.9848 35.6816 20 31.9997 20C28.3178 20 25.333 22.9848 25.333 26.6667C25.333 30.3486 28.3178 33.3333 31.9997 33.3333Z" fill="white"/>
</svg>
