<svg version="1.1" id="Capa_1" xmlns="http://www.w3.org/2000/svg" xmlns:xlink="http://www.w3.org/1999/xlink" x="0px" y="0px" viewBox="0 0 490.667 490.667" style="enable-background:new 0 0 490.667 490.667;" xml:space="preserve" width="300" height="300" xmlns:svgjs="http://svgjs.dev/svgjs"><g width="100%" height="100%" transform="matrix(1,0,0,1,0,0)"><g>
	<g>
		<path d="M480,0H10.667C4.779,0,0,4.779,0,10.667V480c0,5.888,4.779,10.667,10.667,10.667H480c5.888,0,10.667-4.779,10.667-10.667&#10;&#9;&#9;&#9;V10.667C490.667,4.779,485.888,0,480,0z M469.333,298.667H416c-5.888,0-10.667,4.779-10.667,10.667S410.112,320,416,320h53.333&#10;&#9;&#9;&#9;v149.333h-448V320h149.333v96c0,5.888,4.779,10.667,10.667,10.667S192,421.888,192,416v-96h96c5.888,0,10.667-4.779,10.667-10.667&#10;&#9;&#9;&#9;s-4.779-10.667-10.667-10.667H21.333v-128h181.333c5.888,0,10.667-4.779,10.667-10.667v-42.667&#10;&#9;&#9;&#9;c0-5.888-4.779-10.667-10.667-10.667S192,111.445,192,117.333v32H21.333v-128h277.333V224c0,5.888,4.779,10.667,10.667,10.667&#10;&#9;&#9;&#9;h85.333c5.888,0,10.667-4.779,10.667-10.667s-4.779-10.667-10.667-10.667H320v-192h149.333V298.667z" fill="#ffffff" fill-opacity="1" data-original-color="#000000ff" stroke="none" stroke-opacity="1"/>
	</g>
</g><g>
</g><g>
</g><g>
</g><g>
</g><g>
</g><g>
</g><g>
</g><g>
</g><g>
</g><g>
</g><g>
</g><g>
</g><g>
</g><g>
</g><g>
</g></g></svg>